#!OML:ASF E:\Style4\Style4.ASF
:FULLY-SPECIFIED
:DEGREES
1873
root 0.445987 16.8124 -1.21447 2.05943 -2.67978 3.56628
lowerback 17.5743 3.09318 -2.34417
upperback 13.3501 3.71054 0.76963
thorax 4.34714 1.66536 1.62973
lowerneck 9.41173 -3.6886 -6.87173
upperneck 1.19476 -5.51077 3.83936
head -0.931602 -2.82722 2.61423
rclavicle 6.52014e-014 -2.14687e-014
rhumerus 19.5315 14.7896 -81.5658
rradius 130.09
rwrist 18.9171
rhand 31.7087 -10.6661
rfingers 7.12502
rthumb 55.2362 -28.6325
lclavicle 6.52014e-014 -2.14687e-014
lhumerus 26.4042 -22.7964 80.5384
lradius 131.449
lwrist -16.3357
lhand 25.2746 43.7433
lfingers 7.12502
lthumb 49.4131 65.2688
rfemur -30.862 -6.35454 14.0233
rtibia 55.3755
rfoot -23.8348 -15.7656
rtoes -13.5852
lfemur -28.8216 6.92644 -24.5426
ltibia 52.6208
lfoot -26.5142 8.9788
ltoes -9.54944
1874
root 0.448409 16.8149 -1.21571 2.07195 -2.71612 3.54021
lowerback 17.5655 3.10476 -2.28525
upperback 13.3408 3.73288 0.765134
thorax 4.34361 1.68098 1.58911
lowerneck 9.46085 -3.68948 -6.84473
upperneck 1.15661 -5.51115 3.88722
head -0.952076 -2.82823 2.62792
rclavicle -3.06128e-014 1.03368e-014
rhumerus 19.7189 14.7506 -81.5588
rradius 130.082
rwrist 18.8625
rhand 31.495 -10.7878
rfingers 7.12502
rthumb 55.0458 -28.8933
lclavicle -3.06128e-014 1.03368e-014
lhumerus 26.5313 -22.8385 80.4959
lradius 131.535
lwrist -16.4188
lhand 25.513 44.0969
lfingers 7.12502
lthumb 49.6318 65.5109
rfemur -30.8513 -6.40632 14.0403
rtibia 55.3102
rfoot -23.8045 -15.6529
rtoes -13.4647
lfemur -28.8016 6.93733 -24.5122
ltibia 52.5457
lfoot -26.3994 8.76106
ltoes -8.22452
1875
root 0.450909 16.8163 -1.21618 2.05817 -2.79168 3.56584
lowerback 17.5917 3.12806 -2.28084
upperback 13.3324 3.76236 0.752193
thorax 4.32067 1.69689 1.56724
lowerneck 9.38241 -3.67433 -6.88202
upperneck 1.24597 -5.49027 3.91902
head -0.909016 -2.81908 2.64008
rclavicle 5.20816e-014 -1.90833e-014
rhumerus 19.8151 14.7189 -81.5904
rradius 130.096
rwrist 18.8279
rhand 31.3963 -10.7462
rfingers 7.12502
rthumb 54.9577 -28.9154
lclavicle 5.20816e-014 -1.90833e-014
lhumerus 26.6844 -22.8519 80.5019
lradius 131.389
lwrist -16.153
lhand 25.1444 44.2289
lfingers 7.12502
lthumb 49.2937 65.8148
rfemur -30.8437 -6.41668 14.0017
rtibia 55.2711
rfoot -23.7596 -15.6344
rtoes -13.7238
lfemur -28.7548 7.07937 -24.5741
ltibia 52.512
lfoot -26.2279 8.92172
ltoes -9.00234
1876
root 0.452383 16.8176 -1.21674 2.03247 -2.88148 3.64915
lowerback 17.6172 3.1512 -2.38863
upperback 13.3371 3.77735 0.751858
thorax 4.30651 1.69673 1.62369
lowerneck 9.28887 -3.65699 -6.94918
upperneck 1.29028 -5.46947 3.88135
head -0.878828 -2.80809 2.63503
rclavicle 1.07344e-014 1.82882e-014
rhumerus 19.9314 14.8127 -81.5803
rradius 130.12
rwrist 18.7933
rhand 31.3647 -10.719
rfingers 7.12502
rthumb 54.9295 -28.9086
lclavicle 1.07344e-014 1.82882e-014
lhumerus 26.8601 -22.7663 80.5445
lradius 131.181
lwrist -15.9821
lhand 24.7922 44.133
lfingers 7.12502
lthumb 48.9703 65.8801
rfemur -30.8302 -6.37608 13.8973
rtibia 55.2569
rfoot -23.776 -15.566
rtoes -13.6358
lfemur -28.6983 7.33944 -24.7373
ltibia 52.5049
lfoot -26.1136 9.50572
ltoes -12.0377
1877
root 0.454108 16.8183 -1.21705 2.0343 -2.93099 3.67538
lowerback 17.6302 3.15817 -2.4186
upperback 13.3338 3.78171 0.748909
thorax 4.29463 1.69695 1.63587
lowerneck 9.20008 -3.65187 -6.97003
upperneck 1.32854 -5.45992 3.861
head -0.851496 -2.80292 2.62794
rclavicle 1.47101e-014 7.15625e-015
rhumerus 20.1303 14.8705 -81.5265
rradius 130.143
rwrist 18.7704
rhand 31.2817 -10.7817
rfingers 7.12502
rthumb 54.8554 -29.0245
lclavicle 1.47101e-014 7.15625e-015
lhumerus 26.9672 -22.7227 80.5883
lradius 131.136
lwrist -15.9379
lhand 24.6511 43.8446
lfingers 7.12502
lthumb 48.8406 65.6555
rfemur -30.8534 -6.36783 13.8616
rtibia 55.2577
rfoot -23.7735 -15.4942
rtoes -13.4977
lfemur -28.6866 7.50072 -24.8059
ltibia 52.5078
lfoot -26.1076 9.8224
ltoes -13.5581
1878
root 0.455668 16.8191 -1.21673 2.05122 -2.96812 3.75513
lowerback 17.6251 3.17578 -2.46071
upperback 13.3152 3.79958 0.714725
thorax 4.2757 1.70501 1.62023
lowerneck 9.20417 -3.65098 -7.01028
upperneck 1.34822 -5.46247 3.90895
head -0.843583 -2.80548 2.65112
rclavicle 2.18663e-014 -9.54166e-015
rhumerus 20.2914 14.8307 -81.5034
rradius 130.121
rwrist 18.7399
rhand 31.314 -10.7756
rfingers 7.12502
rthumb 54.8842 -28.9977
lclavicle 2.18663e-014 -9.54166e-015
lhumerus 26.9936 -22.7634 80.651
lradius 131.152
lwrist -15.9271
lhand 24.6266 43.46
lfingers 7.12502
lthumb 48.8181 65.2819
rfemur -30.9068 -6.38014 13.7753
rtibia 55.2651
rfoot -23.6977 -15.5549
rtoes -13.9371
lfemur -28.6995 7.5402 -24.9032
ltibia 52.5025
lfoot -26.0743 9.88083
ltoes -13.7257
1879
root 0.456138 16.8194 -1.21497 2.06115 -3.02611 3.78226
lowerback 17.6007 3.21057 -2.45995
upperback 13.3103 3.84555 0.699705
thorax 4.28178 1.72877 1.59849
lowerneck 9.14004 -3.66243 -6.9871
upperneck 1.44265 -5.47195 3.88819
head -0.802361 -2.81033 2.63582
rclavicle 3.57812e-015 1.51076e-014
rhumerus 20.3458 14.8129 -81.5149
rradius 130.126
rwrist 18.7536
rhand 31.237 -10.7987
rfingers 7.12502
rthumb 54.8155 -29.0701
lclavicle 3.57812e-015 1.51076e-014
lhumerus 27.0604 -22.8226 80.7526
lradius 131.143
lwrist -15.9347
lhand 24.6132 43.3236
lfingers 7.12502
lthumb 48.8058 65.1516
rfemur -30.9292 -6.33568 13.7434
rtibia 55.2689
rfoot -23.7294 -15.5418
rtoes -13.8995
lfemur -28.6975 7.60198 -24.9323
ltibia 52.496
lfoot -26.0983 9.84209
ltoes -13.651
1880
root 0.457232 16.8199 -1.2115 2.05963 -3.09774 3.72915
lowerback 17.5877 3.20802 -2.41055
upperback 13.3035 3.84799 0.701149
thorax 4.2833 1.73306 1.57255
lowerneck 9.08118 -3.63919 -7.00285
upperneck 1.49498 -5.44024 3.82841
head -0.778152 -2.79373 2.6148
rclavicle -1.94809e-014 1.98785e-014
rhumerus 20.3615 14.9466 -81.5354
rradius 130.144
rwrist 18.7457
rhand 31.2108 -10.786
rfingers 7.12502
rthumb 54.7921 -29.074
lclavicle -1.94809e-014 1.98785e-014
lhumerus 27.0519 -22.8017 80.8288
lradius 131.159
lwrist -15.857
lhand 24.4283 43.3424
lfingers 7.12502
lthumb 48.6357 65.2531
rfemur -30.898 -6.25153 13.7922
rtibia 55.2517
rfoot -23.7501 -15.5009
rtoes -13.8415
lfemur -28.6744 7.72088 -24.8752
ltibia 52.4891
lfoot -26.1283 9.81581
ltoes -13.8623
1881
root 0.458907 16.8203 -1.20754 2.04034 -3.14825 3.72958
lowerback 17.5896 3.20542 -2.38562
upperback 13.2976 3.84752 0.673798
thorax 4.27897 1.73578 1.52951
lowerneck 9.08448 -3.62833 -6.97188
upperneck 1.49586 -5.42371 3.77842
head -0.781371 -2.7845 2.59211
rclavicle 2.38542e-015 3.18055e-015
rhumerus 20.3751 15.0638 -81.5713
rradius 130.197
rwrist 18.7015
rhand 31.3433 -10.7508
rfingers 7.12502
rthumb 54.9104 -28.9541
lclavicle 2.38542e-015 3.18055e-015
lhumerus 27.0093 -22.7813 80.9
lradius 131.195
lwrist -15.7731
lhand 24.4669 43.3697
lfingers 7.12502
lthumb 48.6712 65.2631
rfemur -30.8582 -6.18973 13.7819
rtibia 55.2393
rfoot -23.6849 -15.5205
rtoes -13.9964
lfemur -28.6297 7.82813 -24.8773
ltibia 52.4782
lfoot -26.1203 9.73923
ltoes -13.818
1882
root 0.460884 16.8203 -1.20437 2.02074 -3.20772 3.75679
lowerback 17.5795 3.21984 -2.3842
upperback 13.3 3.86676 0.644317
thorax 4.28815 1.74668 1.49546
lowerneck 9.0795 -3.63494 -6.94129
upperneck 1.51624 -5.42934 3.76483
head -0.774659 -2.78714 2.58149
rclavicle 6.36111e-015 -2.54444e-014
rhumerus 20.3855 15.1452 -81.5417
rradius 130.215
rwrist 18.5855
rhand 31.2855 -10.8658
rfingers 7.12502
rthumb 54.8588 -29.1061
lclavicle 6.36111e-015 -2.54444e-014
lhumerus 26.9542 -22.7875 80.9693
lradius 131.297
lwrist -15.6964
lhand 24.6961 43.5135
lfingers 7.12502
lthumb 48.882 65.304
rfemur -30.8489 -6.12299 13.745
rtibia 55.2425
rfoot -23.6421 -15.5616
rtoes -14.2665
lfemur -28.5896 7.91985 -24.9117
ltibia 52.4719
lfoot -26.1316 9.67411
ltoes -13.6751
1883
root 0.462962 16.8192 -1.20085 2.01505 -3.27432 3.81151
lowerback 17.554 3.2342 -2.43564
upperback 13.2915 3.87974 0.611696
thorax 4.29074 1.75099 1.4888
lowerneck 9.05216 -3.62861 -6.9565
upperneck 1.57982 -5.42093 3.77695
head -0.749241 -2.78379 2.5858
rclavicle 2.46493e-014 8.74653e-015
rhumerus 20.3578 15.2305 -81.553
rradius 130.207
rwrist 18.5264
rhand 31.2985 -11.006
rfingers 7.12502
rthumb 54.8704 -29.2381
lclavicle 2.46493e-014 8.74653e-015
lhumerus 26.8159 -22.8521 81.0159
lradius 131.392
lwrist -15.8636
lhand 24.8823 43.5508
lfingers 7.12502
lthumb 49.053 65.2569
rfemur -30.8711 -6.04744 13.6737
rtibia 55.2706
rfoot -23.6815 -15.5425
rtoes -14.1965
lfemur -28.5696 7.98554 -24.9793
ltibia 52.4693
lfoot -26.1958 9.67903
ltoes -13.5869
1884
root 0.464611 16.8166 -1.19828 2.01928 -3.32053 3.81465
lowerback 17.5854 3.22296 -2.42127
upperback 13.251 3.86538 0.576535
thorax 4.23313 1.74728 1.44254
lowerneck 9.05486 -3.61078 -6.97254
upperneck 1.61641 -5.39917 3.79544
head -0.738391 -2.77383 2.5937
rclavicle 6.36111e-015 7.95139e-016
rhumerus 20.2595 15.3079 -81.6194
rradius 130.206
rwrist 18.5355
rhand 31.3079 -10.9421
rfingers 7.12502
rthumb 54.8788 -29.1681
lclavicle 6.36111e-015 7.95139e-016
lhumerus 26.6397 -22.9406 81.0359
lradius 131.423
lwrist -16.0116
lhand 24.9069 43.5064
lfingers 7.12502
lthumb 49.0757 65.2012
rfemur -30.8981 -5.93998 13.6618
rtibia 55.316
rfoot -23.7494 -15.5228
rtoes -13.8162
lfemur -28.5767 8.02247 -24.9889
ltibia 52.484
lfoot -26.2492 9.69882
ltoes -13.6296
1885
root 0.465922 16.8159 -1.19728 2.0162 -3.34789 3.81672
lowerback 17.5934 3.19412 -2.45281
upperback 13.2512 3.82301 0.586152
thorax 4.22861 1.72313 1.4758
lowerneck 9.01788 -3.57503 -7.08859
upperneck 1.63164 -5.36107 3.81034
head -0.726182 -2.75562 2.61752
rclavicle 1.11319e-014 -9.54166e-015
rhumerus 20.2574 15.4294 -81.6109
rradius 130.139
rwrist 18.5547
rhand 31.2359 -10.9069
rfingers 7.12502
rthumb 54.8145 -29.1789
lclavicle 1.11319e-014 -9.54166e-015
lhumerus 26.5948 -22.8939 81.0916
lradius 131.411
lwrist -16.117
lhand 24.924 43.4058
lfingers 7.12502
lthumb 49.0913 65.0929
rfemur -30.9239 -5.86254 13.6609
rtibia 55.3678
rfoot -23.7251 -15.6021
rtoes -14.0701
lfemur -28.5942 8.07651 -25.0046
ltibia 52.5003
lfoot -26.1671 9.83254
ltoes -13.9808
1886
root 0.467852 16.8121 -1.19486 1.9877 -3.37783 3.87104
lowerback 17.5592 3.17124 -2.49278
upperback 13.2839 3.78971 0.569448
thorax 4.28312 1.70326 1.488
lowerneck 9.00344 -3.53436 -7.203
upperneck 1.62302 -5.31709 3.86749
head -0.725057 -2.73509 2.65641
rclavicle 1.59028e-015 0
rhumerus 20.2862 15.4968 -81.5737
rradius 130.017
rwrist 18.571
rhand 31.0898 -10.9106
rfingers 7.12502
rthumb 54.684 -29.2754
lclavicle 1.59028e-015 0
lhumerus 26.6302 -22.8427 81.1077
lradius 131.413
lwrist -16.131
lhand 25.0422 43.2563
lfingers 7.12502
lthumb 49.1999 64.8893
rfemur -30.9222 -5.79345 13.5895
rtibia 55.4317
rfoot -23.7351 -15.653
rtoes -14.2257
lfemur -28.5719 8.1193 -25.0728
ltibia 52.5187
lfoot -26.1399 9.84663
ltoes -13.8543
1887
root 0.471167 16.8068 -1.19178 1.93602 -3.41558 3.95049
lowerback 17.5387 3.18768 -2.49523
upperback 13.3188 3.81257 0.516519
thorax 4.33538 1.7162 1.43256
lowerneck 9.0599 -3.54968 -7.14744
upperneck 1.5538 -5.33493 3.88617
head -0.757036 -2.74363 2.65625
rclavicle -1.31198e-014 -6.36111e-015
rhumerus 20.2661 15.4453 -81.5721
rradius 129.974
rwrist 18.5257
rhand 31.0767 -10.9338
rfingers 7.12502
rthumb 54.6722 -29.307
lclavicle -1.31198e-014 -6.36111e-015
lhumerus 26.7043 -22.9296 81.1134
lradius 131.375
lwrist -16.1317
lhand 25.145 43.1329
lfingers 7.12502
lthumb 49.2942 64.7185
rfemur -30.9164 -5.71103 13.4752
rtibia 55.4993
rfoot -23.7182 -15.7084
rtoes -14.3707
lfemur -28.5151 8.14089 -25.1672
ltibia 52.5373
lfoot -26.1965 9.83691
ltoes -13.7606
